<svg xmlns="http://www.w3.org/2000/svg" viewBox="0 0 512 512" width="512" height="512">
  <defs>
    <linearGradient id="cy" x1="0" y1="0" x2="1" y2="1">
      <stop offset="0"  stop-color="#9DF7FF"/>
      <stop offset="0.5" stop-color="#3ED6F2"/>
      <stop offset="1"  stop-color="#0E9FC4"/>
    </linearGradient>
    <radialGradient id="tile" cx="0.5" cy="0.42" r="0.75">
      <stop offset="0" stop-color="#0E2530"/>
      <stop offset="1" stop-color="#050D12"/>
    </radialGradient>
  </defs>
  <rect x="6" y="6" width="500" height="500" rx="46" fill="url(#tile)" stroke="#12333F" stroke-width="2"/>
  <g fill="none">
    <polygon points="411,256 334,390 179,390 101,256 178,122 334,122" fill="none" stroke="url(#cy)" stroke-width="9" stroke-linejoin="miter"/>
    <polygon points="348,256 302,336 210,336 164,256 210,176 302,176" fill="none" stroke="url(#cy)" stroke-width="4" opacity="0.55"/>
    <line x1="290" y1="256" x2="393" y2="256" stroke="url(#cy)" stroke-width="5" opacity="0.85"/><line x1="273" y1="285" x2="325" y2="375" stroke="url(#cy)" stroke-width="5" opacity="0.85"/><line x1="239" y1="285" x2="188" y2="375" stroke="url(#cy)" stroke-width="5" opacity="0.85"/><line x1="222" y1="256" x2="119" y2="256" stroke="url(#cy)" stroke-width="5" opacity="0.85"/><line x1="239" y1="227" x2="188" y2="137" stroke="url(#cy)" stroke-width="5" opacity="0.85"/><line x1="273" y1="227" x2="325" y2="137" stroke="url(#cy)" stroke-width="5" opacity="0.85"/>
    <polygon points="428,256 420,271 402,271 394,256 402,241 420,241" fill="#0B1B22" stroke="url(#cy)" stroke-width="4"/><polygon points="418,256 414,262 408,262 404,256 408,250 414,250" fill="url(#cy)"/><polygon points="350,390 342,405 325,405 316,390 325,376 342,376" fill="#0B1B22" stroke="url(#cy)" stroke-width="4"/><polygon points="340,390 337,396 330,396 326,390 330,384 337,384" fill="url(#cy)"/><polygon points="196,390 187,405 170,405 162,390 170,376 187,376" fill="#0B1B22" stroke="url(#cy)" stroke-width="4"/><polygon points="186,390 182,396 175,396 172,390 175,384 182,384" fill="url(#cy)"/><polygon points="118,256 110,271 92,271 84,256 92,241 110,241" fill="#0B1B22" stroke="url(#cy)" stroke-width="4"/><polygon points="108,256 104,262 98,262 94,256 98,250 104,250" fill="url(#cy)"/><polygon points="195,122 187,136 170,136 161,122 170,107 187,107" fill="#0B1B22" stroke="url(#cy)" stroke-width="4"/><polygon points="185,122 182,128 175,128 171,122 175,116 182,116" fill="url(#cy)"/><polygon points="350,122 342,136 325,136 316,122 325,107 342,107" fill="#0B1B22" stroke="url(#cy)" stroke-width="4"/><polygon points="340,122 337,128 330,128 326,122 330,116 337,116" fill="url(#cy)"/>
    <polygon points="286,256 271,282 241,282 226,256 241,230 271,230" fill="#0B1B22" stroke="url(#cy)" stroke-width="9" stroke-linejoin="miter"/>
    <polygon points="271,256 264,269 248,269 241,256 248,243 264,243" fill="url(#cy)"/>
  </g>
</svg>
